<svg width="500" height="500" viewBox="0 0 500 500" fill="none" xmlns="http://www.w3.org/2000/svg">
<g clip-path="url(#clip0_4_59)">
<rect width="500" height="500" fill="#8DB295"/>
<path d="M243.8 433.192C206.936 433.192 174.68 426.536 147.032 413.224C119.384 399.571 97.88 380.797 82.52 356.904C67.5013 332.669 59.992 304.68 59.992 272.936C59.992 241.533 65.4533 212.691 76.376 186.408C87.64 160.125 103.341 137.427 123.48 118.312C143.619 99.1973 167.512 84.52 195.16 74.28C222.808 63.6986 253.187 58.408 286.296 58.408C320.771 58.408 351.32 64.552 377.944 76.84C404.568 89.128 424.365 106.877 437.336 130.088L350.296 198.184C342.787 184.872 333.059 174.632 321.112 167.464C309.165 159.955 295 156.2 278.616 156.2C264.28 156.2 251.139 158.931 239.192 164.392C227.587 169.512 217.517 177.021 208.984 186.92C200.451 196.477 193.795 207.912 189.016 221.224C184.237 234.536 181.848 249.213 181.848 265.256C181.848 279.251 184.92 291.539 191.064 302.12C197.208 312.701 205.741 320.893 216.664 326.696C227.928 332.499 240.899 335.4 255.576 335.4C269.571 335.4 283.224 332.157 296.536 325.672C310.189 319.187 323.16 308.605 335.448 293.928L406.616 362.024C384.771 388.648 360.365 407.251 333.4 417.832C306.776 428.072 276.909 433.192 243.8 433.192Z" fill="black"/>
<path d="M238.877 297.102L219.252 207.426L250.228 207.544L266.065 283.51L246.353 283.434L293.747 207.711L324.723 207.829L268.573 297.215L238.877 297.102Z" fill="black"/>
</g>
<defs>
<clipPath id="clip0_4_59">
<rect width="500" height="500" fill="white"/>
</clipPath>
</defs>
</svg>
