<svg width="379" height="434" viewBox="0 0 379 434" fill="none" xmlns="http://www.w3.org/2000/svg">
<path d="M184.8 433.192C147.936 433.192 115.68 426.536 88.032 413.224C60.384 399.571 38.88 380.797 23.52 356.904C8.50133 332.669 0.992001 304.68 0.992001 272.936C0.992001 241.533 6.45333 212.691 17.376 186.408C28.64 160.125 44.3413 137.427 64.48 118.312C84.6187 99.1973 108.512 84.52 136.16 74.28C163.808 63.6986 194.187 58.408 227.296 58.408C261.771 58.408 292.32 64.552 318.944 76.84C345.568 89.128 365.365 106.877 378.336 130.088L291.296 198.184C283.787 184.872 274.059 174.632 262.112 167.464C250.165 159.955 236 156.2 219.616 156.2C205.28 156.2 192.139 158.931 180.192 164.392C168.587 169.512 158.517 177.021 149.984 186.92C141.451 196.477 134.795 207.912 130.016 221.224C125.237 234.536 122.848 249.213 122.848 265.256C122.848 279.251 125.92 291.539 132.064 302.12C138.208 312.701 146.741 320.893 157.664 326.696C168.928 332.499 181.899 335.4 196.576 335.4C210.571 335.4 224.224 332.157 237.536 325.672C251.189 319.187 264.16 308.605 276.448 293.928L347.616 362.024C325.771 388.648 301.365 407.251 274.4 417.832C247.776 428.072 217.909 433.192 184.8 433.192Z" fill="black"/>
<path d="M179.877 297.102L160.252 207.426L191.228 207.544L207.065 283.51L187.353 283.434L234.747 207.711L265.723 207.829L209.573 297.215L179.877 297.102Z" fill="black"/>
</svg>
