<svg width="312" height="199" viewBox="0 0 312 199" fill="none" xmlns="http://www.w3.org/2000/svg">
<rect x="5.25696" y="5.84662" width="301.349" height="157.936" rx="25" fill="#030604" stroke="black" stroke-width="10"/>
<rect x="141.012" y="162" width="26.732" height="29.0145" fill="black"/>
<path d="M133 189C133 186.239 135.239 184 138 184H174.177C176.938 184 179.177 186.239 179.177 189V197.665C179.177 198.217 178.729 198.665 178.177 198.665H134C133.448 198.665 133 198.217 133 197.665V189Z" fill="black"/>
<path d="M36.0294 35L37.8494 25.9H42.6724C43.7557 25.9 44.5704 26.0907 45.1164 26.472C45.6624 26.8447 45.9354 27.3777 45.9354 28.071C45.9354 28.6343 45.7707 29.111 45.4414 29.501C45.1207 29.891 44.6744 30.19 44.1024 30.398C43.539 30.5973 42.889 30.697 42.1524 30.697L42.5424 29.995C43.4697 29.995 44.1977 30.1813 44.7264 30.554C45.2637 30.918 45.5324 31.4337 45.5324 32.101C45.5324 32.7683 45.3374 33.3187 44.9474 33.752C44.566 34.1767 44.0547 34.493 43.4134 34.701C42.772 34.9003 42.0614 35 41.2814 35H36.0294ZM39.4744 32.855H41.4504C41.7537 32.855 42.0007 32.7857 42.1914 32.647C42.3907 32.5083 42.4904 32.3003 42.4904 32.023C42.4904 31.8237 42.4124 31.6763 42.2564 31.581C42.109 31.477 41.9357 31.425 41.7364 31.425H39.5524L39.9554 29.397H41.7234C41.9574 29.397 42.148 29.3667 42.2954 29.306C42.4514 29.2367 42.564 29.1457 42.6334 29.033C42.7027 28.9117 42.7374 28.7687 42.7374 28.604C42.7374 28.4133 42.6637 28.2747 42.5164 28.188C42.3777 28.0927 42.1827 28.045 41.9314 28.045H40.4364L39.4744 32.855ZM48.8431 35L50.1821 28.279H47.5171L47.9981 25.9H56.3961L55.9151 28.279H53.2501L51.9111 35H48.8431ZM61.33 35.208C60.394 35.208 59.575 35.039 58.873 34.701C58.171 34.3543 57.625 33.8777 57.235 33.271C56.8537 32.6557 56.663 31.945 56.663 31.139C56.663 30.3417 56.8017 29.6093 57.079 28.942C57.365 28.2747 57.7637 27.6983 58.275 27.213C58.7864 26.7277 59.393 26.355 60.095 26.095C60.797 25.8263 61.5684 25.692 62.409 25.692C63.2844 25.692 64.06 25.848 64.736 26.16C65.412 26.472 65.9147 26.9227 66.244 27.512L64.034 29.241C63.8434 28.903 63.5964 28.643 63.293 28.461C62.9897 28.2703 62.63 28.175 62.214 28.175C61.85 28.175 61.5164 28.2443 61.213 28.383C60.9184 28.513 60.6627 28.7037 60.446 28.955C60.2294 29.1977 60.0604 29.488 59.939 29.826C59.8177 30.164 59.757 30.5367 59.757 30.944C59.757 31.2993 59.835 31.6113 59.991 31.88C60.147 32.1487 60.3637 32.3567 60.641 32.504C60.927 32.6513 61.2564 32.725 61.629 32.725C61.9844 32.725 62.331 32.6427 62.669 32.478C63.0157 32.3133 63.345 32.0447 63.657 31.672L65.464 33.401C64.9094 34.077 64.2897 34.5493 63.605 34.818C62.929 35.078 62.1707 35.208 61.33 35.208ZM71.0533 37.522L73.4843 25.354H76.1623L73.7313 37.522H71.0533ZM81.4288 35L83.2488 25.9H88.0718C89.1552 25.9 89.9698 26.0907 90.5158 26.472C91.0618 26.8447 91.3348 27.3777 91.3348 28.071C91.3348 28.6343 91.1702 29.111 90.8408 29.501C90.5202 29.891 90.0738 30.19 89.5018 30.398C88.9385 30.5973 88.2885 30.697 87.5518 30.697L87.9418 29.995C88.8692 29.995 89.5972 30.1813 90.1258 30.554C90.6632 30.918 90.9318 31.4337 90.9318 32.101C90.9318 32.7683 90.7368 33.3187 90.3468 33.752C89.9655 34.1767 89.4542 34.493 88.8128 34.701C88.1715 34.9003 87.4608 35 86.6808 35H81.4288ZM84.8738 32.855H86.8498C87.1532 32.855 87.4002 32.7857 87.5908 32.647C87.7902 32.5083 87.8898 32.3003 87.8898 32.023C87.8898 31.8237 87.8118 31.6763 87.6558 31.581C87.5085 31.477 87.3352 31.425 87.1358 31.425H84.9518L85.3548 29.397H87.1228C87.3568 29.397 87.5475 29.3667 87.6948 29.306C87.8508 29.2367 87.9635 29.1457 88.0328 29.033C88.1022 28.9117 88.1368 28.7687 88.1368 28.604C88.1368 28.4133 88.0632 28.2747 87.9158 28.188C87.7772 28.0927 87.5822 28.045 87.3308 28.045H85.8358L84.8738 32.855ZM92.3025 35L93.7195 27.889H96.6445L95.2275 35H92.3025ZM95.5005 27.317C94.9892 27.317 94.5819 27.1827 94.2785 26.914C93.9839 26.6453 93.8365 26.316 93.8365 25.926C93.8365 25.4667 94.0055 25.0853 94.3435 24.782C94.6902 24.4787 95.1452 24.327 95.7085 24.327C96.2199 24.327 96.6229 24.4527 96.9175 24.704C97.2209 24.9553 97.3725 25.276 97.3725 25.666C97.3725 26.1513 97.1992 26.55 96.8525 26.862C96.5145 27.1653 96.0639 27.317 95.5005 27.317ZM100.846 35.13C100.239 35.13 99.7237 35.0173 99.2991 34.792C98.8744 34.5667 98.5754 34.2373 98.4021 33.804C98.2287 33.362 98.2027 32.8333 98.3241 32.218L99.5071 26.29H102.445L101.262 32.205C101.219 32.4477 101.245 32.6253 101.34 32.738C101.435 32.8507 101.583 32.907 101.782 32.907C101.903 32.907 102.012 32.894 102.107 32.868C102.211 32.8333 102.319 32.79 102.432 32.738L102.77 34.714C102.501 34.8613 102.198 34.9653 101.86 35.026C101.531 35.0953 101.193 35.13 100.846 35.13ZM97.7001 30.424L98.1291 28.279H103.498L103.069 30.424H97.7001ZM108.325 35.13C107.545 35.13 106.865 34.9957 106.284 34.727C105.703 34.4497 105.253 34.064 104.932 33.57C104.611 33.076 104.451 32.4997 104.451 31.841C104.451 31.061 104.642 30.3633 105.023 29.748C105.404 29.1327 105.933 28.6473 106.609 28.292C107.285 27.9367 108.061 27.759 108.936 27.759C109.785 27.759 110.522 27.9453 111.146 28.318C111.77 28.6907 112.208 29.1977 112.459 29.839L109.963 30.983C109.842 30.6537 109.677 30.4197 109.469 30.281C109.27 30.1423 109.044 30.073 108.793 30.073C108.533 30.073 108.299 30.1423 108.091 30.281C107.883 30.411 107.718 30.593 107.597 30.827C107.484 31.061 107.428 31.3383 107.428 31.659C107.428 31.997 107.523 32.2743 107.714 32.491C107.905 32.7077 108.182 32.816 108.546 32.816C108.832 32.816 109.083 32.7467 109.3 32.608C109.517 32.4693 109.707 32.2353 109.872 31.906L112.017 33.154C111.67 33.778 111.176 34.2633 110.535 34.61C109.902 34.9567 109.166 35.13 108.325 35.13ZM117.144 35.13C116.364 35.13 115.684 34.9957 115.103 34.727C114.522 34.4497 114.072 34.064 113.751 33.57C113.439 33.076 113.283 32.4997 113.283 31.841C113.283 31.061 113.474 30.3633 113.855 29.748C114.236 29.1327 114.761 28.6473 115.428 28.292C116.095 27.9367 116.858 27.759 117.716 27.759C118.505 27.759 119.185 27.8977 119.757 28.175C120.338 28.4437 120.784 28.825 121.096 29.319C121.417 29.8043 121.577 30.3807 121.577 31.048C121.577 31.828 121.386 32.5257 121.005 33.141C120.624 33.7563 120.099 34.2417 119.432 34.597C118.773 34.9523 118.011 35.13 117.144 35.13ZM117.313 32.842C117.573 32.842 117.798 32.777 117.989 32.647C118.18 32.5083 118.327 32.3177 118.431 32.075C118.544 31.8237 118.6 31.529 118.6 31.191C118.6 30.8877 118.509 30.6233 118.327 30.398C118.145 30.164 117.885 30.047 117.547 30.047C117.296 30.047 117.07 30.1163 116.871 30.255C116.68 30.385 116.529 30.5757 116.416 30.827C116.312 31.0697 116.26 31.36 116.26 31.698C116.26 32.036 116.351 32.3133 116.533 32.53C116.724 32.738 116.984 32.842 117.313 32.842ZM122.666 35L124.083 27.889H127.008L125.591 35H122.666ZM125.864 27.317C125.353 27.317 124.945 27.1827 124.642 26.914C124.347 26.6453 124.2 26.316 124.2 25.926C124.2 25.4667 124.369 25.0853 124.707 24.782C125.054 24.4787 125.509 24.327 126.072 24.327C126.583 24.327 126.986 24.4527 127.281 24.704C127.584 24.9553 127.736 25.276 127.736 25.666C127.736 26.1513 127.563 26.55 127.216 26.862C126.878 27.1653 126.427 27.317 125.864 27.317ZM133.979 27.759C134.568 27.759 135.071 27.8847 135.487 28.136C135.911 28.3787 136.21 28.747 136.384 29.241C136.566 29.7263 136.583 30.3373 136.436 31.074L135.656 35H132.718L133.433 31.425C133.511 31.035 133.493 30.7403 133.381 30.541C133.268 30.333 133.056 30.229 132.744 30.229C132.414 30.229 132.137 30.3417 131.912 30.567C131.686 30.7837 131.526 31.1217 131.431 31.581L130.742 35H127.804L129.221 27.889H131.99L131.587 29.878L131.249 29.332C131.587 28.786 132.003 28.3873 132.497 28.136C132.999 27.8847 133.493 27.759 133.979 27.759Z" fill="#8DB295"/>
<rect x="36.318" y="106.272" width="6.86108" height="34.3933" fill="#7CD789"/>
<rect x="93.4937" y="81.1653" width="6.5752" height="59.5004" fill="#7CD789"/>
<rect x="64.9058" y="92.515" width="6.86108" height="48.1506" fill="#7CD789"/>
<rect x="79.1998" y="70.5033" width="6.86108" height="70.1624" fill="#8DB295"/>
<rect x="107.502" y="55.3703" width="6.86108" height="85.9833" fill="#8DB295"/>
<rect x="50.6119" y="84.9485" width="6.86108" height="55.7172" fill="#8DB295"/>
<rect width="6.86108" height="34.3933" transform="matrix(-1 0 0 1 199.84 106.272)" fill="#7CD789"/>
<rect width="6.5752" height="59.5004" transform="matrix(-1 0 0 1 142.665 81.1653)" fill="#7CD789"/>
<rect width="6.86108" height="48.1506" transform="matrix(-1 0 0 1 171.253 92.515)" fill="#7CD789"/>
<rect width="6.86108" height="70.1624" transform="matrix(-1 0 0 1 156.959 70.5033)" fill="#8DB295"/>
<rect width="6.86108" height="55.7172" transform="matrix(-1 0 0 1 185.547 84.9485)" fill="#8DB295"/>
<rect width="6.86108" height="34.3933" transform="matrix(-1 0 0 1 285.318 105.584)" fill="#7CD789"/>
<rect width="6.5752" height="59.5004" transform="matrix(-1 0 0 1 228.142 80.4774)" fill="#7CD789"/>
<rect width="6.86108" height="48.1506" transform="matrix(-1 0 0 1 256.73 91.8272)" fill="#7CD789"/>
<rect width="6.86108" height="70.1624" transform="matrix(-1 0 0 1 242.436 69.8154)" fill="#8DB295"/>
<rect width="6.86108" height="85.9833" transform="matrix(-1 0 0 1 214.134 54.6824)" fill="#8DB295"/>
<rect width="6.86108" height="55.7172" transform="matrix(-1 0 0 1 271.024 84.2607)" fill="#8DB295"/>
</svg>
